<?xml version="1.0" encoding="utf-8"?>
<svg version="1.2" viewBox="0 0 262 217" width="262" height="217" xmlns="http://www.w3.org/2000/svg">
  <defs>
    <clipPath clipPathUnits="userSpaceOnUse" id="cp1">
      <path d="m118.45 45.73c21.2 0 45.53 7.44 57.77 11.97 23.84 8.84 13.17 57.34 7 60.34-6.17 3-10.39 4.18-10.39 4.18 0 0-16.3 6.61-48-4.55-25-8.8-44.44 0.55-44.44 0.55 0 0-4 1.81-0.84-43.68 1.55-22.14 18.82-28.81 38.9-28.81z"/>
    </clipPath>
    <clipPath clipPathUnits="userSpaceOnUse" id="cp2">
      <path d="m0 0h261.33v216.15h-261.33z"/>
    </clipPath>
    <clipPath clipPathUnits="userSpaceOnUse" id="cp3">
      <path d="m0 0h261.33v216.15h-261.33z"/>
    </clipPath>
  </defs>
  <style>
        .a{fill:#781000}.d{fill:#0d9331}
    </style>
  <g id="content" style="" transform="matrix(2.396701, 0, 0, 2.398802, -186.347382, -118.249695)">
    <g clip-path="url(#cp1)">
      <path d="m172 93.3c0 22.9-18.5 41.4-41.3 41.4-22.9 0-41.4-18.5-41.4-41.4 0-22.8 18.5-41.3 41.4-41.3 22.8 0 41.3 18.5 41.3 41.3z" style="fill:#e36a13"/>
    </g>
    <g clip-path="url(#cp2)">
      <path class="d" d="m80.4 119.6c0 0 19.4-9.4 44.4-0.6 31.7 11.2 48 4.6 48 4.6 0 0-20.7 10.1-46.2-0.6-27.8-11.7-46.2-3.4-46.2-3.4z"/>
      <path class="d" d="m83.5 120.6c0 0 22.3-6.2 41.8 5.4 22.3 13.3 55.6-3 55.6-3 0 0-31.8 22.2-54.3 9.3-6.8-3.9-12-8.2-17.5-10-15-4.8-25.6-1.7-25.6-1.7z"/>
      <path class="d" d="m86.6 121.6c0 0 15.3-2.5 25 5.2 9.8 7.6 14.4 10.2 25.1 11.4 0 0-17.3 0.8-28.3-10.6-7.6-7.7-21.8-6-21.8-6z"/>
      <path class="d" d="m104.2 127.9c3.6 4.1 9 6.5 9 6.5 0 0-7.6-2.2-11.9-6.8-4.8-5.1-12-5.1-12-5.1 0 0 9.9-0.4 14.9 5.4z"/>
    </g>
    <g clip-path="url(#cp3)">
      <path class="a" d="m122.8 92.2l21.1 3.8v6.6h2v-11.6h5.8v6l7.9 1.3 7.8 11.3c-7.8 10.4-28.8 3.3-28.8 3.3l-15.2-18.5-12.1 15.8z"/>
      <path class="a" d="m107.5 96.6l-11.4 15.6 10.9-17h12.9l-5.6 7.2z"/>
      <path class="a" d="m122.8 105h-3.2v-3.7h3.2z"/>
      <path class="a" d="m126.6 105h-3.3v-3.7h3.3z"/>
      <path class="a" d="m122.8 109.2h-3.2v-3.8h3.2z"/>
      <path class="a" d="m126.6 109.2h-3.3v-3.8h3.3z"/>
      <path class="a" d="m106.8 103.8h-1.7v-2.5h1.7z"/>
      <path class="a" d="m108.8 103.8h-1.6v-2.5h1.6z"/>
      <path class="a" d="m106.8 106.7h-1.7v-2.5h1.7z"/>
      <path class="a" d="m108.8 106.7h-1.6v-2.5h1.6z"/>
    </g>
  </g>
</svg>